<svg xmlns="http://www.w3.org/2000/svg" viewBox="0 0 512 512">
  <defs>
    <radialGradient id="space" cx="50%" cy="40%" r="80%">
      <stop offset="0%" stop-color="#142845"/>
      <stop offset="60%" stop-color="#06101f"/>
      <stop offset="100%" stop-color="#02060f"/>
    </radialGradient>
    <radialGradient id="globe" cx="40%" cy="35%" r="75%">
      <stop offset="0%" stop-color="#3a78d6"/>
      <stop offset="60%" stop-color="#1a3e8c"/>
      <stop offset="100%" stop-color="#0a1b46"/>
    </radialGradient>
    <radialGradient id="atmosphere" cx="50%" cy="50%" r="50%">
      <stop offset="78%" stop-color="#5cb5ff" stop-opacity="0"/>
      <stop offset="92%" stop-color="#5cb5ff" stop-opacity="0.55"/>
      <stop offset="100%" stop-color="#5cb5ff" stop-opacity="0"/>
    </radialGradient>
  </defs>
  <rect width="512" height="512" rx="92" fill="url(#space)"/>
  <circle cx="256" cy="256" r="220" fill="url(#atmosphere)"/>
  <circle cx="256" cy="256" r="172" fill="url(#globe)"/>
  <!-- Simplified continents -->
  <g fill="#7cc46f" opacity="0.78">
    <path d="M 196 158 q 18 -16 38 -8 q 22 4 30 22 q 8 14 -2 28 q -16 14 -34 12 q -16 -2 -26 -16 q -10 -16 -6 -38 z"/>
    <path d="M 318 196 q 16 4 22 22 q 4 18 -10 30 q -18 14 -36 4 q -12 -10 -10 -28 q 6 -22 34 -28 z"/>
    <path d="M 156 252 q 28 -6 50 6 q 18 12 18 32 q -2 24 -28 30 q -28 4 -42 -16 q -14 -22 2 -52 z"/>
    <path d="M 280 296 q 26 -2 36 18 q 8 22 -10 38 q -22 14 -42 4 q -16 -10 -16 -32 q 6 -24 32 -28 z"/>
  </g>
  <!-- Plane silhouette at NE -->
  <g fill="#ffffff" opacity="0.92" transform="translate(360 110) rotate(45)">
    <path d="M 0 -28 L 4 -10 L 36 -2 L 36 6 L 4 -2 L 4 16 L 14 22 L 14 28 L -14 28 L -14 22 L -4 16 L -4 -2 L -36 6 L -36 -2 L -4 -10 Z"/>
  </g>
</svg>
