<svg xmlns="http://www.w3.org/2000/svg" viewBox="0 0 512 512">
  <defs>
    <radialGradient id="globeM" cx="42%" cy="38%" r="80%">
      <stop offset="0%" stop-color="#3a78d6"/>
      <stop offset="65%" stop-color="#1a3e8c"/>
      <stop offset="100%" stop-color="#0a1b46"/>
    </radialGradient>
  </defs>
  <!-- Maskable icons need a safe zone (40% inset). Fill the outer with the
       brand color so when Android masks the corners we still see something. -->
  <rect width="512" height="512" fill="#02060f"/>
  <circle cx="256" cy="256" r="200" fill="url(#globeM)"/>
  <g fill="#7cc46f" opacity="0.85">
    <path d="M 180 168 q 22 -18 46 -8 q 28 6 36 26 q 6 18 -8 30 q -22 16 -42 12 q -22 -4 -32 -22 q -10 -20 0 -38 z"/>
    <path d="M 318 220 q 20 4 26 26 q 4 22 -16 32 q -22 12 -42 -2 q -14 -14 -8 -34 q 8 -24 40 -22 z"/>
    <path d="M 152 282 q 32 -8 56 6 q 22 12 22 36 q 0 24 -28 32 q -34 6 -50 -18 q -16 -26 0 -56 z"/>
  </g>
</svg>
